<?xml version="1.0" encoding="UTF-8"?>
<svg id="_レイヤー_2" data-name="レイヤー 2" xmlns="http://www.w3.org/2000/svg" viewBox="0 0 106.97 10.9">
  <g id="Footer">
    <g>
      <g>
        <path d="M17.42.15h1.11l4.79,10.57h-1.27l-1.23-2.77h-5.71l-1.25,2.77h-1.21L17.42.15ZM20.35,6.88l-2.38-5.35-2.4,5.35h4.78Z" fill="#fff"/>
        <path d="M25.15,2.97h1.15v2.03c.57-1.29,1.69-2.22,3.17-2.16v1.25h-.09c-1.69,0-3.07,1.21-3.07,3.55v3.09h-1.15V2.97Z" fill="#fff"/>
        <path d="M31.86,8.67V3.99h-1.08v-1.02h1.08V.63h1.16v2.34h2.46v1.02h-2.46v4.53c0,.95.52,1.29,1.3,1.29.39,0,.72-.08,1.12-.27v.99c-.4.21-.84.33-1.4.33-1.25,0-2.19-.61-2.19-2.19Z" fill="#fff"/>
        <path d="M42.21.22h3.65c3.3,0,5.58,2.27,5.58,5.22v.03c0,2.96-2.28,5.25-5.58,5.25h-3.65V.22ZM43.4,1.32v8.31h2.46c2.65,0,4.35-1.8,4.35-4.12v-.03c0-2.32-1.69-4.15-4.35-4.15h-2.46Z" fill="#fff"/>
        <path d="M53.76,0h1.32v1.28h-1.32V0ZM53.83,2.97h1.15v7.75h-1.15V2.97Z" fill="#fff"/>
        <path d="M57.57,2.97h1.15v2.03c.57-1.29,1.69-2.22,3.17-2.16v1.25h-.09c-1.69,0-3.07,1.21-3.07,3.55v3.09h-1.15V2.97Z" fill="#fff"/>
        <path d="M62.9,6.87v-.03c0-2.24,1.57-4.04,3.72-4.04,2.29,0,3.61,1.83,3.61,4.09,0,.15,0,.24-.01.38h-6.15c.17,1.68,1.35,2.62,2.73,2.62,1.06,0,1.81-.43,2.44-1.09l.72.64c-.78.87-1.72,1.46-3.19,1.46-2.13,0-3.87-1.63-3.87-4.03ZM69.06,6.42c-.12-1.41-.93-2.64-2.47-2.64-1.35,0-2.37,1.12-2.52,2.64h4.99Z" fill="#fff"/>
        <path d="M71.78,6.88v-.03c0-2.19,1.71-4.05,3.97-4.05,1.47,0,2.39.62,3.1,1.38l-.77.81c-.61-.65-1.3-1.17-2.35-1.17-1.58,0-2.77,1.33-2.77,3v.03c0,1.68,1.23,3.02,2.85,3.02.99,0,1.75-.5,2.37-1.16l.73.69c-.78.87-1.71,1.5-3.17,1.5-2.26,0-3.97-1.84-3.97-4.02Z" fill="#fff"/>
        <path d="M81.36,8.67V3.99h-1.08v-1.02h1.08V.63h1.16v2.34h2.46v1.02h-2.46v4.53c0,.95.52,1.29,1.3,1.29.39,0,.72-.08,1.12-.27v.99c-.4.21-.84.33-1.4.33-1.24,0-2.19-.61-2.19-2.19Z" fill="#fff"/>
        <path d="M86.74,0h1.32v1.28h-1.32V0ZM86.82,2.97h1.15v7.75h-1.15V2.97Z" fill="#fff"/>
        <path d="M90.05,6.88v-.03c0-2.19,1.71-4.05,4.05-4.05s4.03,1.83,4.03,4.02v.03c0,2.19-1.72,4.05-4.06,4.05s-4.02-1.83-4.02-4.02ZM96.95,6.88v-.03c0-1.67-1.24-3.03-2.88-3.03s-2.83,1.36-2.83,3v.03c0,1.67,1.23,3.02,2.86,3.02s2.85-1.35,2.85-2.99Z" fill="#fff"/>
        <path d="M100.19,2.97h1.15v1.35c.51-.84,1.32-1.52,2.65-1.52,1.88,0,2.97,1.26,2.97,3.11v4.81h-1.16v-4.53c0-1.44-.78-2.34-2.14-2.34s-2.33.98-2.33,2.43v4.44h-1.15V2.97Z" fill="#fff"/>
      </g>
      <circle cx="3.69" cy="5.51" r="3.69" fill="#cc2020"/>
    </g>
  </g>
</svg>