<?xml version="1.0" encoding="UTF-8"?>
<svg id="_レイヤー_2" data-name="レイヤー 2" xmlns="http://www.w3.org/2000/svg" viewBox="0 0 106.95 13.44">
  <g id="Footer">
    <g>
      <circle cx="3.69" cy="5.63" r="3.69" fill="#cc2020"/>
      <g>
        <path d="M12.65.51h1.19v10.5h-1.19V.51Z" fill="#fff"/>
        <path d="M17.13,3.25h1.15v1.35c.51-.84,1.32-1.52,2.65-1.52,1.88,0,2.97,1.26,2.97,3.11v4.81h-1.16v-4.53c0-1.44-.78-2.34-2.14-2.34s-2.33.98-2.33,2.43v4.44h-1.15V3.25Z" fill="#fff"/>
        <path d="M27.06,4.28h-1.06v-1h1.06v-.68c0-.88.24-1.56.67-1.99.39-.39.96-.6,1.67-.6.54,0,.9.06,1.27.2v1c-.42-.12-.73-.2-1.12-.2-.9,0-1.35.54-1.35,1.65v.63h2.46v.99h-2.44v6.73h-1.15v-6.73Z" fill="#fff"/>
        <path d="M31.86,7.17v-.03c0-2.19,1.71-4.05,4.05-4.05s4.03,1.83,4.03,4.02v.03c0,2.19-1.72,4.05-4.06,4.05s-4.02-1.83-4.02-4.02ZM38.76,7.17v-.03c0-1.67-1.24-3.03-2.88-3.03s-2.83,1.36-2.83,3v.03c0,1.67,1.23,3.02,2.86,3.02s2.85-1.35,2.85-2.99Z" fill="#fff"/>
        <path d="M42.34,12.36l.53-.9c.88.64,1.88.99,2.98.99,1.71,0,2.82-.95,2.82-2.76v-.92c-.68.9-1.62,1.64-3.04,1.64-1.86,0-3.65-1.4-3.65-3.63v-.03c0-2.26,1.8-3.66,3.65-3.66,1.46,0,2.4.72,3.03,1.56v-1.4h1.15v6.41c0,1.2-.36,2.11-.99,2.74-.69.69-1.73,1.04-2.96,1.04s-2.49-.36-3.52-1.08ZM48.7,6.76v-.03c0-1.59-1.38-2.62-2.85-2.62s-2.69,1.02-2.69,2.61v.03c0,1.56,1.25,2.64,2.69,2.64s2.85-1.06,2.85-2.62Z" fill="#fff"/>
        <path d="M52.79,3.25h1.15v2.03c.57-1.29,1.69-2.22,3.17-2.16v1.25h-.09c-1.69,0-3.07,1.21-3.07,3.55v3.09h-1.15V3.25Z" fill="#fff"/>
        <path d="M58.56,8.76v-.03c0-1.63,1.35-2.5,3.31-2.5.99,0,1.69.14,2.38.33v-.27c0-1.4-.85-2.12-2.31-2.12-.92,0-1.63.24-2.35.57l-.34-.95c.85-.39,1.69-.64,2.82-.64s1.94.29,2.5.85c.52.53.79,1.28.79,2.26v4.74h-1.11v-1.17c-.54.71-1.44,1.33-2.8,1.33-1.44,0-2.9-.83-2.9-2.42ZM64.27,8.16v-.75c-.57-.17-1.33-.33-2.28-.33-1.45,0-2.26.63-2.26,1.6v.03c0,.97.9,1.54,1.95,1.54,1.43,0,2.6-.87,2.6-2.1Z" fill="#fff"/>
        <path d="M68.26,3.25h1.15v1.56c.63-.93,1.54-1.73,2.97-1.73,1.86,0,3.71,1.47,3.71,4.02v.03c0,2.54-1.83,4.04-3.71,4.04-1.44,0-2.37-.78-2.97-1.65v3.88h-1.15V3.25ZM74.91,7.16v-.03c0-1.83-1.26-3-2.73-3s-2.8,1.21-2.8,2.99v.03c0,1.8,1.36,3,2.8,3s2.73-1.11,2.73-2.98Z" fill="#fff"/>
        <path d="M78.63.06h1.15v4.54c.51-.84,1.32-1.52,2.65-1.52,1.88,0,2.97,1.26,2.97,3.11v4.81h-1.16v-4.53c0-1.44-.78-2.34-2.14-2.34s-2.33.98-2.33,2.43v4.44h-1.15V.06Z" fill="#fff"/>
        <path d="M88.26.29h1.32v1.28h-1.32V.29ZM88.34,3.25h1.15v7.75h-1.15V3.25Z" fill="#fff"/>
        <path d="M92.01,7.17v-.03c0-2.19,1.71-4.05,3.97-4.05,1.47,0,2.39.62,3.1,1.38l-.77.81c-.61-.65-1.3-1.17-2.35-1.17-1.58,0-2.77,1.33-2.77,3v.03c0,1.68,1.23,3.02,2.85,3.02.99,0,1.75-.5,2.37-1.16l.73.69c-.78.87-1.71,1.5-3.17,1.5-2.26,0-3.97-1.84-3.97-4.02Z" fill="#fff"/>
        <path d="M100.98,10.02l.58-.82c.84.63,1.77.99,2.69.99s1.6-.48,1.6-1.23v-.03c0-.78-.91-1.08-1.93-1.37-1.21-.34-2.56-.76-2.56-2.19v-.03c0-1.33,1.11-2.22,2.64-2.22.95,0,2,.33,2.79.85l-.52.87c-.72-.46-1.54-.75-2.29-.75-.92,0-1.5.48-1.5,1.12v.03c0,.74.96,1.02,2,1.33,1.2.36,2.49.83,2.49,2.22v.03c0,1.47-1.21,2.33-2.76,2.33-1.11,0-2.34-.44-3.21-1.14Z" fill="#fff"/>
      </g>
    </g>
  </g>
</svg>